<?xml version="1.0" encoding="utf-8"?>
<!-- Generator: Adobe Illustrator 15.0.2, SVG Export Plug-In . SVG Version: 6.00 Build 0)  -->
<!DOCTYPE svg PUBLIC "-//W3C//DTD SVG 1.1//EN" "http://www.w3.org/Graphics/SVG/1.1/DTD/svg11.dtd">
<svg version="1.1" id="Layer_1" xmlns="http://www.w3.org/2000/svg" xmlns:xlink="http://www.w3.org/1999/xlink" x="0px" y="0px"
	 width="411.904px" height="170.635px" viewBox="0 0 411.904 170.635" enable-background="new 0 0 411.904 170.635"
	 xml:space="preserve">
<g>
	<g>
		<path fill="#666766" d="M53.28,53.521c1.166,0.501,2.154,1.239,2.964,2.213c0.67,0.802,1.201,1.69,1.592,2.664
			c0.391,0.974,0.587,2.084,0.587,3.33c0,1.504-0.38,2.983-1.139,4.437c-0.759,1.454-2.013,2.481-3.76,3.083
			c1.461,0.587,2.496,1.422,3.104,2.503c0.608,1.082,0.913,2.732,0.913,4.952v2.127c0,1.447,0.058,2.428,0.175,2.943
			c0.174,0.816,0.582,1.418,1.222,1.805v0.795h-7.305c-0.201-0.702-0.344-1.268-0.43-1.697c-0.172-0.888-0.265-1.797-0.279-2.729
			l-0.043-2.943c-0.027-2.02-0.376-3.366-1.047-4.039c-0.67-0.673-1.927-1.01-3.77-1.01h-6.463v12.418h-6.467V52.705h15.147
			C50.448,52.748,52.114,53.021,53.28,53.521z M39.604,58.205v8.508h7.122c1.415,0,2.475-0.172,3.183-0.516
			c1.251-0.602,1.877-1.79,1.877-3.566c0-1.919-0.605-3.208-1.816-3.867c-0.68-0.372-1.701-0.559-3.061-0.559H39.604z"/>
	</g>
	<g>
		<path fill="#666766" d="M98.74,58.312H81.982v6.725h15.383v5.5H81.982v8.143h17.531v5.693H75.515V52.705H98.74V58.312z"/>
	</g>
	<g>
		<path fill="#666766" d="M118.254,56.014c2.551-2.606,5.795-3.91,9.735-3.91c5.271,0,9.125,1.748,11.562,5.242
			c1.346,1.962,2.068,3.932,2.168,5.908h-6.617c-0.421-1.518-0.961-2.664-1.621-3.438c-1.179-1.375-2.926-2.062-5.241-2.062
			c-2.357,0-4.217,0.971-5.578,2.911c-1.361,1.941-2.042,4.688-2.042,8.239c0,3.552,0.718,6.213,2.154,7.981
			c1.436,1.769,3.261,2.653,5.474,2.653c2.27,0,4-0.759,5.191-2.277c0.658-0.816,1.205-2.041,1.639-3.674h6.574
			c-0.567,3.452-2.016,6.259-4.347,8.422c-2.331,2.163-5.317,3.244-8.958,3.244c-4.506,0-8.049-1.461-10.627-4.383
			c-2.579-2.936-3.868-6.961-3.868-12.074C113.854,63.269,115.321,59.007,118.254,56.014z"/>
	</g>
	<g>
		<path fill="#666766" d="M177.859,53.521c1.166,0.501,2.154,1.239,2.964,2.213c0.67,0.802,1.201,1.69,1.592,2.664
			c0.391,0.974,0.587,2.084,0.587,3.33c0,1.504-0.38,2.983-1.139,4.437c-0.759,1.454-2.013,2.481-3.76,3.083
			c1.461,0.587,2.496,1.422,3.104,2.503c0.608,1.082,0.913,2.732,0.913,4.952v2.127c0,1.447,0.058,2.428,0.175,2.943
			c0.174,0.816,0.582,1.418,1.222,1.805v0.795h-7.305c-0.201-0.702-0.344-1.268-0.43-1.697c-0.172-0.888-0.265-1.797-0.279-2.729
			l-0.043-2.943c-0.027-2.02-0.376-3.366-1.047-4.039c-0.67-0.673-1.927-1.01-3.77-1.01h-6.463v12.418h-6.467V52.705h15.147
			C175.027,52.748,176.693,53.021,177.859,53.521z M164.182,58.205v8.508h7.122c1.415,0,2.475-0.172,3.183-0.516
			c1.251-0.602,1.877-1.79,1.877-3.566c0-1.919-0.605-3.208-1.816-3.867c-0.68-0.372-1.701-0.559-3.061-0.559H164.182z"/>
	</g>
	<g>
		<path fill="#666766" d="M199.9,52.705h6.725v19.449c0,2.175,0.257,3.764,0.771,4.766c0.8,1.775,2.54,2.662,5.224,2.662
			c2.669,0,4.402-0.887,5.202-2.662c0.513-1.001,0.771-2.59,0.771-4.766V52.705h6.725V72.17c0,3.366-0.521,5.987-1.565,7.863
			c-1.944,3.438-5.655,5.156-11.132,5.156s-9.194-1.719-11.153-5.156c-1.044-1.876-1.565-4.497-1.565-7.863V52.705z"/>
	</g>
	<g>
		<path fill="#666766" d="M248.272,84.373h-6.574V52.705h6.574V84.373z"/>
	</g>
	<g>
		<path fill="#666766" d="M288.029,52.705v5.607h-9.475v26.061h-6.66V58.312h-9.518v-5.607H288.029z"/>
	</g>
</g>
<path fill="#666766" d="M365.45,100.873c8.684-7.518,14.185-18.613,14.185-31c0-22.644-18.356-41-41-41s-41,18.356-41,41
	c0,12.387,5.501,23.482,14.185,31c-8.684,7.518-14.185,18.613-14.185,31c0,3.403,0,9.731,0,16.917h31.072l8.438-29.463
	L325.2,101.873h26.869l-11.944,17.454l8.438,29.463h31.072c0-5.812,0-11.629,0-16.917
	C379.635,119.486,374.134,108.391,365.45,100.873z M339.471,84.373h-5.46V60.972h-0.078l-5.227,23.401h-5.732l-5.109-23.401h-0.078
	v23.401h-5.46V56.37h8.541l5.07,22.075h0.078l4.992-22.075h8.463V84.373z M345.085,84.373V56.37h20.593v4.953h-14.859v5.889h13.65
	v4.953h-13.65v7.254h15.522v4.953H345.085z"/>
<g>
	<path fill="#FFFFFF" d="M48.1,52.705c2.165,0.043,3.831,0.315,4.997,0.816c1.166,0.502,2.154,1.239,2.964,2.213
		c0.67,0.803,1.201,1.69,1.592,2.664c0.391,0.975,0.587,2.084,0.587,3.33c0,1.504-0.38,2.982-1.139,4.437
		c-0.759,1.454-2.013,2.481-3.76,3.083c1.461,0.588,2.496,1.422,3.104,2.503c0.608,1.081,0.913,2.732,0.913,4.952v2.127
		c0,1.447,0.058,2.428,0.175,2.943c0.174,0.816,0.582,1.418,1.222,1.805v0.795h-7.305c-0.201-0.701-0.344-1.268-0.43-1.697
		c-0.172-0.888-0.265-1.797-0.279-2.729l-0.043-2.943c-0.027-2.02-0.376-3.365-1.047-4.039c-0.67-0.673-1.927-1.01-3.77-1.01H39.42
		v12.418h-6.467V52.705H48.1 M39.42,66.713h7.122c1.415,0,2.475-0.172,3.183-0.516c1.251-0.602,1.877-1.79,1.877-3.566
		c0-1.919-0.605-3.208-1.816-3.867c-0.68-0.372-1.701-0.559-3.061-0.559H39.42V66.713 M48.11,51.705H48.1H32.953h-1v1v31.668v1h1
		h6.467h1v-1V72.955h5.463c2.043,0,2.795,0.448,3.061,0.716c0.269,0.27,0.725,1.063,0.755,3.347l0.043,2.944
		c0.015,0.985,0.115,1.962,0.297,2.904c0.093,0.464,0.244,1.062,0.45,1.782l0.208,0.725h0.754h7.305h1v-1v-0.795v-0.564
		l-0.483-0.291c-0.402-0.243-0.644-0.611-0.761-1.158c-0.071-0.314-0.153-1.032-0.153-2.734v-2.127c0-2.417-0.341-4.197-1.042-5.442
		c-0.426-0.756-1.023-1.41-1.785-1.958c1.058-0.679,1.88-1.573,2.455-2.675c0.831-1.593,1.252-3.241,1.252-4.899
		c0-1.367-0.222-2.613-0.659-3.702c-0.428-1.066-1.018-2.053-1.753-2.933c-0.906-1.09-2.029-1.928-3.336-2.491
		c-1.299-0.558-3.056-0.852-5.372-0.897H48.11L48.11,51.705z M40.42,59.205h6.305c1.474,0,2.217,0.237,2.581,0.436
		c0.322,0.176,1.296,0.706,1.296,2.99c0,1.824-0.748,2.395-1.311,2.665c-0.393,0.191-1.187,0.417-2.75,0.417H40.42V59.205
		L40.42,59.205z"/>
	<path fill="#FFFFFF" d="M98.556,52.705v5.607H81.798v6.725h15.383v5.5H81.798v8.143H99.33v5.693H75.332V52.705H98.556
		 M99.556,51.705h-1H75.332h-1v1v31.668v1h1H99.33h1v-1V78.68v-1h-1H82.798v-6.143h14.383h1v-1v-5.5v-1h-1H82.798v-4.725h15.758h1
		v-1v-5.607V51.705L99.556,51.705z"/>
	<path fill="#FFFFFF" d="M127.806,52.104c5.271,0,9.125,1.748,11.562,5.242c1.346,1.963,2.068,3.932,2.168,5.908h-6.617
		c-0.421-1.518-0.961-2.664-1.621-3.438c-1.179-1.375-2.926-2.062-5.241-2.062c-2.357,0-4.217,0.971-5.578,2.911
		s-2.042,4.688-2.042,8.239c0,3.553,0.718,6.213,2.154,7.981s3.261,2.653,5.474,2.653c2.27,0,4-0.759,5.191-2.277
		c0.658-0.816,1.205-2.041,1.639-3.674h6.574c-0.567,3.452-2.016,6.26-4.347,8.422c-2.331,2.163-5.317,3.244-8.958,3.244
		c-4.506,0-8.049-1.461-10.627-4.383c-2.579-2.936-3.868-6.961-3.868-12.074c0-5.528,1.467-9.789,4.4-12.783
		C120.622,53.407,123.866,52.104,127.806,52.104 M127.806,51.104c-4.199,0-7.715,1.417-10.45,4.211
		c-3.108,3.173-4.685,7.71-4.685,13.482c0,5.34,1.385,9.624,4.117,12.734c2.766,3.134,6.594,4.723,11.379,4.723
		c3.885,0,7.128-1.182,9.639-3.511c2.486-2.307,4.052-5.332,4.653-8.993l0.191-1.162h-1.178h-6.574h-0.769l-0.198,0.743
		c-0.396,1.488-0.885,2.601-1.451,3.303c-1.008,1.285-2.449,1.905-4.413,1.905c-1.914,0-3.45-0.747-4.698-2.283
		c-1.281-1.578-1.931-4.052-1.931-7.352c0-3.326,0.626-5.905,1.86-7.665c1.173-1.673,2.729-2.485,4.759-2.485
		c2.027,0,3.493,0.561,4.481,1.713c0.56,0.656,1.037,1.685,1.416,3.055l0.204,0.732h0.76h6.617h1.052l-0.053-1.051
		c-0.108-2.154-0.896-4.315-2.342-6.423C137.563,53.011,133.397,51.104,127.806,51.104L127.806,51.104z"/>
	<path fill="#FFFFFF" d="M172.679,52.705c2.165,0.043,3.831,0.315,4.997,0.816c1.166,0.502,2.154,1.239,2.964,2.213
		c0.67,0.803,1.201,1.69,1.592,2.664c0.391,0.975,0.587,2.084,0.587,3.33c0,1.504-0.38,2.982-1.139,4.437
		c-0.759,1.454-2.013,2.481-3.76,3.083c1.461,0.588,2.496,1.422,3.104,2.503c0.608,1.081,0.913,2.732,0.913,4.952v2.127
		c0,1.447,0.058,2.428,0.175,2.943c0.174,0.816,0.582,1.418,1.222,1.805v0.795h-7.305c-0.201-0.701-0.344-1.268-0.43-1.697
		c-0.172-0.888-0.265-1.797-0.279-2.729l-0.043-2.943c-0.027-2.02-0.376-3.365-1.047-4.039c-0.67-0.673-1.927-1.01-3.77-1.01h-6.463
		v12.418h-6.467V52.705H172.679 M163.999,66.713h7.122c1.415,0,2.475-0.172,3.183-0.516c1.251-0.602,1.877-1.79,1.877-3.566
		c0-1.919-0.605-3.208-1.816-3.867c-0.68-0.372-1.701-0.559-3.061-0.559h-7.305V66.713 M172.688,51.705h-0.01h-15.147h-1v1v31.668v1
		h1h6.467h1v-1V72.955h5.463c2.043,0,2.795,0.448,3.061,0.716c0.269,0.27,0.725,1.063,0.755,3.347l0.043,2.944
		c0.015,0.985,0.115,1.962,0.297,2.904c0.093,0.464,0.244,1.062,0.45,1.782l0.208,0.725h0.754h7.305h1v-1v-0.795v-0.564
		l-0.483-0.291c-0.402-0.243-0.644-0.611-0.761-1.158c-0.071-0.314-0.153-1.032-0.153-2.734v-2.127c0-2.417-0.341-4.197-1.042-5.442
		c-0.426-0.756-1.023-1.41-1.785-1.958c1.058-0.679,1.88-1.573,2.455-2.675c0.831-1.593,1.252-3.241,1.252-4.899
		c0-1.367-0.222-2.613-0.659-3.702c-0.429-1.066-1.018-2.053-1.753-2.933c-0.906-1.09-2.029-1.928-3.336-2.491
		c-1.299-0.558-3.056-0.852-5.372-0.897H172.688L172.688,51.705z M164.999,59.205h6.305c1.474,0,2.217,0.237,2.581,0.436
		c0.322,0.176,1.296,0.706,1.296,2.99c0,1.824-0.748,2.395-1.311,2.665c-0.393,0.191-1.187,0.417-2.75,0.417h-6.122V59.205
		L164.999,59.205z"/>
	<path fill="#FFFFFF" d="M225.133,52.705V72.17c0,3.366-0.521,5.987-1.565,7.863c-1.944,3.438-5.655,5.156-11.132,5.156
		s-9.194-1.719-11.153-5.156c-1.044-1.876-1.565-4.497-1.565-7.863V52.705h6.725v19.449c0,2.176,0.257,3.764,0.771,4.766
		c0.8,1.775,2.54,2.662,5.224,2.662c2.669,0,4.402-0.887,5.202-2.662c0.513-1.002,0.771-2.59,0.771-4.766V52.705H225.133
		 M226.133,51.705h-1h-6.725h-1v1v19.449c0,2.495-0.359,3.721-0.661,4.311c-0.649,1.439-2.053,2.117-4.312,2.117
		c-2.273,0-3.684-0.678-4.312-2.073l-0.01-0.022l-0.012-0.022c-0.301-0.588-0.66-1.812-0.66-4.31V52.705v-1h-1h-6.725h-1v1V72.17
		c0,3.523,0.569,6.332,1.691,8.35c2.146,3.766,6.191,5.67,12.027,5.67c5.838,0,9.877-1.905,12.002-5.664
		c1.126-2.023,1.695-4.832,1.695-8.355V52.705V51.705L226.133,51.705z"/>
	<path fill="#FFFFFF" d="M248.089,52.705v31.668h-6.574V52.705H248.089 M249.089,51.705h-1h-6.574h-1v1v31.668v1h1h6.574h1v-1
		V52.705V51.705L249.089,51.705z"/>
	<path fill="#FFFFFF" d="M287.846,52.705v5.607h-9.475v26.061h-6.66V58.312h-9.518v-5.607H287.846 M288.846,51.705h-1h-25.652h-1v1
		v5.607v1h1h8.518v25.061v1h1h6.66h1v-1V59.312h8.475h1v-1v-5.607V51.705L288.846,51.705z"/>
</g>
<path fill="#FFFFFF" d="M379.951,149.29h-31.949l-8.605-30.051l0.132-0.194l11.409-16.672h-24.973l11.541,16.866L328.9,149.29
	h-31.949v-17.417c0-11.851,5.069-23.116,13.927-31c-8.857-7.884-13.927-19.149-13.927-31c0-22.883,18.617-41.5,41.5-41.5
	s41.5,18.617,41.5,41.5c0,11.851-5.069,23.116-13.927,31c8.857,7.884,13.927,19.149,13.927,31V149.29z M348.756,148.29h30.195
	v-16.417c0-11.752-5.107-22.913-14.012-30.622l-0.437-0.378l0.437-0.378c8.904-7.709,14.012-18.87,14.012-30.622
	c0-22.332-18.168-40.5-40.5-40.5s-40.5,18.168-40.5,40.5c0,11.752,5.107,22.913,14.012,30.622l0.437,0.378l-0.437,0.378
	c-8.904,7.709-14.012,18.87-14.012,30.622v16.417h30.195l8.27-28.875l-12.348-18.042h28.766l-12.348,18.042L348.756,148.29z
	 M366.657,84.873h-22.256V55.87h21.593v5.953h-14.859v4.89h13.65v5.953h-13.65v6.254h15.522V84.873z M345.401,83.873h20.256V79.92
	h-15.522v-8.254h13.65v-3.953h-13.65v-6.89h14.859V56.87h-19.593V83.873z M339.787,84.873h-6.46V65.155l-4.404,19.718h-6.535
	l-4.285-19.624v19.624h-6.46V55.87h9.439l4.707,20.496l4.636-20.496h9.362V84.873z M334.327,83.873h4.46V56.87h-7.563l-4.992,22.075
	h-0.798l-0.167-0.388l-4.981-21.688h-7.643v27.003h4.46v-23.4h0.902l0.164,0.394l5.023,23.007h4.93l5.227-23.4h0.979V83.873z"/>
</svg>
